<svg xmlns="http://www.w3.org/2000/svg" width="720" height="360" viewBox="0 0 720 360" fill="none">
  <defs>
    <radialGradient id="glow" cx="0" cy="0" r="1" gradientUnits="userSpaceOnUse" gradientTransform="translate(360 180) rotate(90) scale(220 280)">
      <stop stop-color="#D89A4A" stop-opacity="0.22"/>
      <stop offset="0.55" stop-color="#8FBFB0" stop-opacity="0.08"/>
      <stop offset="1" stop-color="#0B0A09" stop-opacity="0"/>
    </radialGradient>
    <linearGradient id="card" x1="210" y1="96" x2="510" y2="268" gradientUnits="userSpaceOnUse">
      <stop stop-color="#1C1A18"/>
      <stop offset="1" stop-color="#12110F"/>
    </linearGradient>
    <linearGradient id="line" x1="0" y1="0" x2="1" y2="0">
      <stop stop-color="#F0C27A" stop-opacity="0"/>
      <stop offset="0.5" stop-color="#F0C27A" stop-opacity="0.7"/>
      <stop offset="1" stop-color="#8FBFB0" stop-opacity="0"/>
    </linearGradient>
  </defs>
  <rect width="720" height="360" fill="#0B0A09"/>
  <circle cx="360" cy="180" r="220" fill="url(#glow)"/>
  <g opacity="0.45">
    <path d="M80 260 C180 210, 250 300, 360 240 C470 180, 540 250, 640 200" stroke="url(#line)" stroke-width="1.2"/>
    <path d="M100 120 C200 160, 280 90, 380 140 C480 190, 560 120, 640 150" stroke="url(#line)" stroke-width="1"/>
  </g>
  <rect x="214" y="102" width="292" height="156" rx="22" fill="url(#card)" stroke="#3A342C" stroke-width="1.2"/>
  <rect x="238" y="128" width="96" height="10" rx="5" fill="#3F3830"/>
  <rect x="238" y="150" width="188" height="8" rx="4" fill="#2C2823"/>
  <rect x="238" y="168" width="162" height="8" rx="4" fill="#2C2823"/>
  <rect x="238" y="198" width="42" height="28" rx="10" fill="#2A3532" stroke="#6F9E90" stroke-width="1"/>
  <rect x="290" y="198" width="72" height="28" rx="10" fill="#2A241C" stroke="#C9A36A" stroke-width="1"/>
  <circle cx="448" cy="212" r="16" fill="#D89A4A"/>
  <path d="M443 212h10M448 207v10" stroke="#1A140E" stroke-width="2" stroke-linecap="round"/>
  <g opacity="0.7">
    <rect x="168" y="148" width="28" height="28" rx="8" fill="#161412" stroke="#3A342C"/>
    <rect x="524" y="176" width="28" height="28" rx="8" fill="#161412" stroke="#3A342C"/>
  </g>
</svg>
